<svg width="14" height="20" viewBox="0 0 14 20" fill="none" xmlns="http://www.w3.org/2000/svg">
<path d="M5.61621 19.3184C8.97363 19.3184 11.2148 17.0771 11.2148 13.7021V12.1992C11.2148 11.6982 10.8105 11.2939 10.3184 11.2939C9.81738 11.2939 9.41309 11.6982 9.41309 12.1992V13.7021C9.41309 15.9873 7.89258 17.5166 5.61621 17.5166C3.33105 17.5166 1.80176 15.9873 1.80176 13.7021V5.60742C1.80176 3.33105 3.33105 1.81055 5.61621 1.81055C7.86621 1.81055 9.37793 3.2959 9.41309 5.5459H8.17383C7.50586 5.5459 7.3125 6.04688 7.70801 6.5918L9.77344 9.50098C10.0898 9.94922 10.582 9.94922 10.9072 9.50098L12.9814 6.60059C13.377 6.04688 13.1924 5.5459 12.5156 5.5459H11.2148C11.1885 2.21484 8.94727 0 5.61621 0C2.25 0 0 2.25 0 5.60742V13.7021C0 17.0771 2.25 19.3184 5.61621 19.3184Z" fill="#1C1C1E"/>
</svg>
