<svg width="20" height="16" viewBox="0 0 20 16" fill="none" xmlns="http://www.w3.org/2000/svg">
<path d="M-5.02911e-06 7.9161C-5.05679e-06 8.23274 0.132782 8.53917 0.367711 8.76388L7.07852 15.4747C7.34409 15.73 7.61987 15.8424 7.90588 15.8424C8.55959 15.8424 9.02945 15.3828 9.02945 14.7597C9.02945 14.4328 8.89666 14.157 8.69238 13.9528L6.39416 11.6239L3.43201 8.9171L5.80173 9.0601L18.1815 9.0601C18.8658 9.0601 19.3357 8.59024 19.3357 7.9161C19.3357 7.25217 18.8658 6.78231 18.1815 6.78231L5.80173 6.78231L3.43201 6.92531L6.39416 4.21851L8.69238 1.88965C8.89666 1.68536 9.02945 1.40958 9.02945 1.08272C9.02945 0.459647 8.55959 1.91895e-06 7.90588 1.8618e-06C7.61988 1.83679e-06 7.34409 0.11236 7.09895 0.347289L0.367711 7.07852C0.132782 7.30324 -5.00232e-06 7.60967 -5.02911e-06 7.9161Z" fill="#1C1C1E"/>
</svg>
