<svg width="20" height="18" viewBox="0 0 20 18" fill="none" xmlns="http://www.w3.org/2000/svg">
<path d="M6.43359 2.32031V3.18164H13.4824V2.32031C13.4824 1.9248 13.21 1.66992 12.7705 1.66992H7.13672C6.70605 1.66992 6.43359 1.9248 6.43359 2.32031ZM9.94922 8.49902C6.49512 8.49902 3.19922 7.97168 0 6.63574V5.99414C0 4.13965 0.966797 3.18164 2.83887 3.18164H4.60547V2.24121C4.60547 0.834961 5.51074 0 7.02246 0H12.8848C14.3965 0 15.3018 0.834961 15.3018 2.24121V3.18164H17.0684C18.9492 3.18164 19.9072 4.13965 19.9072 5.99414V6.63574C16.708 7.97168 13.4121 8.49902 9.94922 8.49902ZM2.83887 17.3848C0.966797 17.3848 0 16.4355 0 14.5723V8.30566C2.67188 9.28125 5.08008 9.73828 7.51465 9.92285V10.6172C7.51465 11.2852 7.90137 11.6543 8.57812 11.6543H11.3203C12.0059 11.6543 12.3926 11.2852 12.3926 10.6172V9.92285C14.8271 9.73828 17.2354 9.28125 19.9072 8.30566V14.5723C19.9072 16.4355 18.9492 17.3848 17.0684 17.3848H2.83887Z" fill="#1C1C1E"/>
</svg>
