<svg width="21" height="21" viewBox="0 0 21 21" fill="none" xmlns="http://www.w3.org/2000/svg">
<path d="M2.6543 20.9883H3.70898C4.47363 20.9883 4.99219 20.4697 4.99219 19.7139V18.3252C6.67969 18.4482 8.37598 18.5098 10.0107 18.5098C11.6455 18.5098 13.3418 18.457 15.0293 18.3252V19.7139C15.0293 20.4697 15.5479 20.9883 16.3125 20.9883H17.376C18.1406 20.9883 18.6592 20.4697 18.6592 19.7139V8.85938H19.0547C19.6172 8.85938 20.0215 8.49023 20.0215 7.96289V4.30664C20.0215 3.77051 19.6172 3.41016 19.0547 3.41016H18.6592V2.49609C18.6592 1.26562 17.9561 0.518555 16.6641 0.351562C14.8271 0.123047 12.4102 0 10.0107 0C7.61133 0 5.21191 0.114258 3.35742 0.351562C2.07422 0.527344 1.3623 1.26562 1.3623 2.49609V3.41016H0.966797C0.404297 3.41016 0 3.77051 0 4.30664V7.96289C0 8.49023 0.404297 8.85938 0.966797 8.85938H1.3623V19.7139C1.3623 20.4697 1.88086 20.9883 2.6543 20.9883ZM4.08691 12.3574C3.50684 12.2607 3.2168 11.918 3.2168 11.2764V3.26074C3.2168 2.54883 3.54199 2.1709 4.19238 2.0918C7.60254 1.67871 12.3926 1.69629 15.8467 2.0918C16.4971 2.1709 16.8135 2.54883 16.8135 3.26074V11.2764C16.8135 11.9268 16.5234 12.2695 15.9434 12.3574C12.4805 12.8848 7.4707 12.9023 4.08691 12.3574ZM4.6582 16.3477C3.99902 16.3477 3.50684 15.8555 3.50684 15.2051C3.50684 14.5459 3.99902 14.0537 4.6582 14.0537C5.30859 14.0537 5.80078 14.5459 5.80078 15.2051C5.80078 15.8555 5.30859 16.3477 4.6582 16.3477ZM15.3721 16.3477C14.7129 16.3477 14.2207 15.8555 14.2207 15.2051C14.2207 14.5459 14.7129 14.0537 15.3721 14.0537C16.0225 14.0537 16.5234 14.5459 16.5234 15.2051C16.5234 15.8555 16.0225 16.3477 15.3721 16.3477ZM8.09473 15.9961C7.62012 15.9961 7.28613 15.6621 7.28613 15.1875C7.28613 14.7129 7.62012 14.3877 8.09473 14.3877H11.9092C12.3838 14.3877 12.7266 14.7129 12.7266 15.1875C12.7266 15.6621 12.3838 15.9961 11.9092 15.9961H8.09473Z" fill="#1C1C1E"/>
</svg>
