<svg width="14" height="28" viewBox="0 0 14 28" fill="none" xmlns="http://www.w3.org/2000/svg">
<path d="M5.78869 27.4289C6.5345 27.4289 7.07691 26.9543 7.07691 26.0616V17.3943C7.07691 17.0101 7.25772 16.7841 7.56282 16.7841C7.86793 16.7841 8.06003 17.0101 8.06003 17.3943V26.0616C8.06003 26.9543 8.60244 27.4289 9.34826 27.4289C10.0828 27.4289 10.6252 26.9543 10.6252 26.0616V11.4165C10.6252 11.1114 10.7721 10.9306 11.0207 10.9306C11.258 10.9306 11.4162 11.1114 11.4162 11.4165V17.4282C11.4162 18.2305 11.8908 18.6825 12.5688 18.6825C13.2468 18.6825 13.7101 18.2305 13.7101 17.4282V11.5521C13.7101 7.9699 11.6874 7.04328 7.67583 7.04328H5.93559C5.15588 7.04328 4.76037 6.93027 4.13885 6.47827L2.64723 5.42735L2.37602 1.20106C2.31952 0.387446 1.79971 -0.0419624 1.1217 0.00323846C0.432382 0.0371391 -0.0422274 0.534349 0.00297345 1.33666L0.274179 5.52905C0.33068 6.44437 0.692287 6.97548 1.2573 7.39358L3.96935 9.37112C4.36486 9.65363 4.50046 10.0039 4.50046 10.4559V26.0616C4.50046 26.9543 5.05417 27.4289 5.78869 27.4289ZM7.67583 5.91325C9.17875 5.91325 10.3879 4.67023 10.3879 3.2125C10.3879 1.70957 9.17875 0.489148 7.67583 0.489148C6.16159 0.489148 4.97507 1.70957 4.97507 3.2125C4.97507 4.69283 6.16159 5.91325 7.67583 5.91325Z" fill="#1C1C1E"/>
</svg>
